<svg id="Ebene_1" data-name="Ebene 1" xmlns="http://www.w3.org/2000/svg" viewBox="0 0 481.89 336.81"><defs><style>.cls-1{fill:#d51130;}.cls-1,.cls-3{fill-rule:evenodd;}.cls-2,.cls-3{fill:#485358;}</style></defs><title>GOSCH_Sylt_logo</title><path class="cls-1" d="M329.13,255.72c0,1.29.33,36.9.34,38.85,0,1.38-.56,1.88-1.26,1.88s-1.38-.37-1.38-1.78c0-2.86-1.93-14.54-6.17-20.62s-10.77-12.82-20.18-12.82-17.63,9.39-17.63,18.79,4.93,14,8.82,17.64S306,308.31,310,311.29s13.64,9.3,18.67,15.82,7.46,12.48,7.46,20-2.06,17.2-6.76,23.5-14.09,12.83-22.45,12.83-17.29-3.67-22.13-5.84c-4.05-1.82-8.93-1.82-8.93,1.71,0,2.86-.57,4.13-1.73,4.13s-1.24-1.84-1.24-3.89V342.93c0-1.17.45-1.73,1.24-1.73s1.38.34,1.85,4.59S278,359,282,364.11s11.35,13,24.29,12.15,17.77-13.41,17.2-20.16-2.07-12.05-7.68-17.2S301.42,327.69,293,321.6,272,305,272,286.78c0-16.86,12.51-32.66,28.19-32.66,8.83,0,13.17,3.78,17.52,5.95s7.26,1.75,8.32-1.23c1.14-3.21,1-4.55,2-4.55S329.13,254.72,329.13,255.72Z" transform="translate(-56.43 -253.28)"/><path class="cls-1" d="M429.07,255.29c1.18,0,1.63,1,1.63,3.08s1.61,34.39,1.61,36.37-1.91,2.48-2.28.81-3.44-14.31-6.45-18.85S412.14,260.65,399,260.65s-20.9,7.83-23.09,11.36-11.88,17.14-11.88,45.13,4.56,37.23,9.49,43.77,13.53,15.92,27.84,15.13,21.07-8.14,29.68-22.24c.8-1.49,1.71-2.41,2.63-2.06s.57,1.22,0,2.52-7.83,23.5-31.1,28.65c-1.82.46-7.32,1.6-15.69-.23s-16.15-5-24.06-14.44-15.12-25.79-15.12-51.1c0-16,8.23-37.71,17.87-47.67s18.91-14.55,31.28-14.55,19.6,5.85,22.24,7.56,5.37,1.15,6.75-1.5S427.94,255.29,429.07,255.29Z" transform="translate(-56.43 -253.28)"/><path class="cls-1" d="M440,257.78h37.71c2.3,0,2.52,2.76.12,2.87s-12-.87-12,9.55v45.22h44.92V270.15c0-4.69-4.34-9.5-11.69-9.5a1.46,1.46,0,1,1-.11-2.92h38a1.49,1.49,0,1,1-.16,3c-4.12,0-12,1.12-12,9.44v98c0,3.14,1.61,9.23,7.22,9.84,1.9.23,3.22.32,4.14.51,1.75.36,2,.8,2,1.48,0,1-.69,1-2,1h-37c-1.43,0-1.76-.44-1.76-1.18s.18-1.21,1.72-1.4c1-.13,2.39-.21,4.25-.51,4.05-.69,7.41-4,7.41-9.82V322H465.65v46.18a10,10,0,0,0,8.71,9.82,20.3,20.3,0,0,0,3,.19c.77,0,1.74.68,1.64,1.54,0,.62-.47,1.28-1.69,1.28H439.81c-1.29,0-1.54-.54-1.54-1.22s.52-1.32,2.24-1.53a30.87,30.87,0,0,0,5.76-.82c1.59-.55,6.05-2.81,6.05-9.26v-98c0-4.38-3.37-9.6-12.3-9.6-1,0-1.8-.22-1.8-1.24S438.82,257.78,440,257.78Z" transform="translate(-56.43 -253.28)"/><path class="cls-1" d="M151.32,316.81c3.83,0,4.07-1.35,4.07-2.13s-.94-1.65-4-1.65H117.9c-2.28,0-2.86.68-2.86,1.25s.12,1.6,3,1.6c8.37,0,10.54,6.53,10.54,11.13s-.23,35.85-.23,43.54c-4.23,3.76-11.56,5.95-19.12,5.95s-13.86-.94-23.62-12.14S71.51,332.84,71.51,315.3s3.43-26.12,8-36.55,14.32-19.13,26.69-19.13,18.11,5.14,23.39,10.77,8.7,16.39,9.39,19.82,3,3.33,2.75.81-2.11-32.34-2.29-35.22c-.19-3.11-2.37-1.91-2.37-.15s-1.06,7.48-5.11,5.8-14.45-8.17-25.67-8.17c-7.82,0-12.52,2-17.34,4.11s-14.87,10-21.17,19.41c-6.4,9.57-11.36,26.38-11.36,38.37,0,9.71-.06,27.06,8.42,41.5S86.4,382.44,109,382.44c21,0,31.51-9,33.46-10.65,0-4,.12-41.48.12-44.68s1.61-10.24,8-10.24C153.08,316.87,151.32,316.81,151.32,316.81Z" transform="translate(-56.43 -253.28)"/><polygon class="cls-2" points="0.16 160.13 0.16 155.16 481.74 155.16 481.74 160.13 0.16 160.13 0.16 160.13"/><path class="cls-1" d="M213.71,382.68c9.75,0,24.52-4.58,34.72-19.36s12.38-32.67,12.38-42.3-2.07-32.3-12.59-47.08-22.94-20.05-35.07-20.05-24.51,5.28-35.07,20.05-12.6,37.48-12.6,47.08,2.18,27.51,12.38,42.3,25,19.36,34.73,19.36Zm-1.24-6.19c-11,0-30.93-7.56-30.93-59.57s23.71-56.27,31.61-56.27,31.61,4.24,31.61,56.27-19.94,59.57-30.93,59.57Z" transform="translate(-56.43 -253.28)"/><path class="cls-3" d="M203.32,446.09c0,.83,0,23.33,0,24.57s-1.53,2-1.53.16-1.13-8.85-3.61-12.8-6.51-8.36-12-8.36S176,455.78,176,461.89s2.86,9.11,5.13,11.47,8.22,7,10.56,8.88,7.71,6.51,10.65,10.76,4.32,7.67,4.32,12.6-1,11.19-3.7,15.28-8.2,8.36-13.08,8.36-10-2.53-12.88-3.79-5.19-.76-5.19,1.1-.34,2.69-1,2.69-.74-1.18-.74-2.53V504.47c0-1.49.28-1.12.74-1.12s.79.21,1.06,3,1.2,8,3.54,11.36,6.6,8.42,14.15,7.92,10.68-9.78,10.34-14.17a16.39,16.39,0,0,0-4.81-11.19c-3.27-3.36-8.41-7.31-13.28-11.26s-12.15-10.81-12.15-22.68c0-11,7.15-21.26,16.3-21.26,5.14,0,7.88,2.47,10.43,3.89s4.45,1.14,5.06-.8c.67-2.09.58-3,1.18-3S203.32,445.42,203.32,446.09Z" transform="translate(-56.43 -253.28)"/><path class="cls-3" d="M233,447.1h20.8a1,1,0,1,1,0,2c-1.45,0-3.51.31-4.23,1.25s-2.89,2.93-.77,8.21,13.85,30.8,13.85,30.8,12.72-27.6,13.84-29.89c1.25-2.52,1.37-5.11.8-6.5s-2.79-3.92-4.39-3.92a1,1,0,1,1,0-2h16.88c.82,0,.77,1.91-.17,1.91a8.67,8.67,0,0,0-4,1.24c-.89.74-2.84,1.66-6.14,8.83S264.2,493,264.2,493v28.25c0,2.12,2.54,5,4.22,5.16,1.46.14,2.23.21,2.65.21.81,0,.92,1.49,0,1.49H249.48c-.66,0-1-1.56,0-1.56s2.63.18,3.81-.46a5.65,5.65,0,0,0,3.17-4.79V493S241.33,459.86,240,457s-4.69-7.74-7-7.74C231.06,449.23,230.84,447.1,233,447.1Z" transform="translate(-56.43 -253.28)"/><path class="cls-3" d="M378.89,447.1H423.8s1.18,17.2,1.26,18.27-1.62,1.39-1.78-.07-.92-7.8-2.85-10.11-4.31-2.79-15-2.79v68.8c0,2.43.38,3.52,1.36,4.43s2.64,1.1,4.18,1.1,1.86,1.55.08,1.46-19.45,0-20.78,0-1.3-1.46.25-1.46,3.49-.16,4.79-1.32a5.56,5.56,0,0,0,1.77-4.55V452.4s-13-.69-14.82,2.79c0,0-2.77,2.16-3.31,10,0,.7-1.69,1.85-1.62,0S378.89,447.1,378.89,447.1Z" transform="translate(-56.43 -253.28)"/><path class="cls-2" d="M350.21,451.9c.33,1-.15,1.59-1,2.5s-6.58,4.72-7.24,5.13c-.94.58-4.45.35-5.4.53-1.94.36-5.26,4.57-8,10.26a91.49,91.49,0,0,0-3.51,9c-.37,2.36.37,6.73.42,8.32.2,5.82-2.29,23,.57,25.6,2,1.82,15.32,9.4,18.81,10.53,2.92,1,4.55.58,7,.58s6.67,0,9.17.08c2.66.11,2,1.54.91,2-2.84,1.16-16.87,11.13-19.2,11.88-2.1.67-5-1.32-8.81-4.21s-4.61-4.19-5.79-7.61c-.39-1.45-2.06-1.93-3.95-1.58-1.67.31-9.24,2.08-10.69,3.17s-2.17,2.88-3.16,5.84a32,32,0,0,0-1.48,6.11c-.68,3.76-1.66,22.51-1.67,26.78,0,2.37.44,6.26.31,8.36s-1.59,6.5-.67,13c.26,1.32.13,2.89-1.32,1.32s-3.41-4.61-3.15-6.19,2-36.17,2.11-40,1.31-18.88,1.44-22,1.32-8,1.84-11.05,18-45,19.21-47.88,9.34-23,10-24.47a3.42,3.42,0,0,1,2-2c.69-.38,4.22-1.84,6.84-.53a41.17,41.17,0,0,0,4.72,2.15c1.12.43,3.71,1.46,4.49,1.67,1,.25,1.84.92.39,1.18s-3.29,1.05-4.34.53-2.12-2.18-3.3-2.18-4,.5-5.38.54c-1.06,0-4.35,0-4.59.94s.09,5.7,1,6C341.38,447.09,349.38,449.46,350.21,451.9Z" transform="translate(-56.43 -253.28)"/></svg>